<svg xmlns="http://www.w3.org/2000/svg" viewBox="0 0 70 140" fill="none">
  <!-- Head and hair flowing back -->
  <path d="M40 10Q48 8 50 14Q52 20 48 24Q44 28 38 28Q32 28 28 24" stroke="currentColor" stroke-width="4" stroke-linecap="round" stroke-linejoin="round"/>
  <path d="M28 24Q24 20 24 14Q24 8 30 6Q36 4 40 10" stroke="currentColor" stroke-width="4" stroke-linecap="round" stroke-linejoin="round"/>
  <!-- Hair flowing down the back -->
  <path d="M24 14Q18 16 16 24Q14 32 16 40" stroke="currentColor" stroke-width="4" stroke-linecap="round"/>
  <!-- Neck and back -->
  <path d="M16 40Q16 50 18 58Q20 66 24 72" stroke="currentColor" stroke-width="4" stroke-linecap="round"/>
  <!-- Lower back and legs -->
  <path d="M24 72Q26 80 28 90Q30 100 30 110Q30 120 28 130" stroke="currentColor" stroke-width="4" stroke-linecap="round"/>
  <!-- Front: chest down to belly -->
  <path d="M48 24Q52 28 54 34Q56 40 56 48" stroke="currentColor" stroke-width="4" stroke-linecap="round"/>
  <!-- Pregnant belly curve -->
  <path d="M56 48Q58 56 58 65Q58 76 52 84Q46 92 40 96" stroke="currentColor" stroke-width="4" stroke-linecap="round"/>
  <!-- Hands on belly -->
  <path d="M40 96Q36 98 34 96Q32 94 30 90" stroke="currentColor" stroke-width="4" stroke-linecap="round"/>
  <!-- Lower front -->
  <path d="M30 90Q28 96 28 104Q28 114 30 124" stroke="currentColor" stroke-width="4" stroke-linecap="round"/>
</svg>
